<?xml version="1.0" encoding="UTF-8"?>
<svg width="30px" height="28.9549581px" viewBox="0 0 30 28.9549581" version="1.1" xmlns="http://www.w3.org/2000/svg" xmlns:xlink="http://www.w3.org/1999/xlink">
    <title>Aida-Icon</title>
    <defs>
        <polygon id="path-1" points="0 0 30 0 30 28.9549581 0 28.9549581"></polygon>
    </defs>
    <g id="Final-Design" stroke="none" stroke-width="1" fill="none" fill-rule="evenodd">
        <g id="Chat-Screen" transform="translate(-935, -349)">
            <g id="chat-group-screen" transform="translate(921, 334)">
                <g id="Aida-Icon-2" transform="translate(14, 15)">
                    <g id="Aida-Icon" transform="translate(0, -0)">
                        <g id="Group-3">
                            <mask id="mask-2" fill="white">
                                <use xlink:href="#path-1"></use>
                            </mask>
                            <g id="Clip-2"></g>
                            <path d="M5.13659803,22.3778825 C2.41336624,22.1020064 0.18470607,19.7775852 0.0136004198,17.0579862 C-0.0853574975,15.4850494 0.353995312,14.0996385 1.38767688,12.9099638 C1.54272548,12.7315199 1.59605522,12.5338947 1.61552712,12.3153445 C1.92264541,8.87746503 3.35579146,5.9804393 5.86294334,3.62840869 C8.13548793,1.49645409 10.8407736,0.306488762 13.9561316,0.0458705173 C20.7117169,-0.519395707 26.9570368,4.20086789 28.1896514,10.8249452 C28.2888272,11.3582427 28.3452086,11.9001862 28.4026797,12.4400954 C28.4232415,12.6329253 28.4965517,12.7806356 28.6173792,12.9237685 C30.9584387,15.6968426 30.2447356,19.7574594 27.0958104,21.5607894 C26.8477617,21.7028325 26.7081162,21.8591889 26.6633599,22.1666705 C26.4522933,23.6174721 25.9652779,24.9532586 24.9164838,26.0300254 C24.0547071,26.9148341 22.9953779,27.4411566 21.8083188,27.7248795 C21.5030896,27.7978265 21.2726964,27.9170555 21.0723829,28.1842128 C20.2695305,29.2550218 18.2019494,29.1946444 17.4334634,28.0991323 C17.0222286,27.5127957 17.1394233,26.8495888 17.7514801,26.2963108 C17.8051005,26.2478491 17.8563232,26.1967717 17.9085631,26.1468568 C18.466927,25.8356697 19.0683761,25.7313352 19.7003408,25.7736939 C20.1210209,25.8890721 20.5407565,26.0170199 20.8623334,26.3276984 C21.0850251,26.5428337 21.3207222,26.5528603 21.5954358,26.4775157 C23.4871159,25.9588222 24.7411641,24.7951585 25.2557162,22.8771767 C25.3510413,22.521742 25.2749702,22.4073083 24.8951229,22.3507816 C24.3942302,22.2236331 24.2768902,22.0807907 24.2767449,21.5736496 C24.2755824,18.263064 24.276091,14.9525512 24.2763816,11.6419656 C24.2763816,11.5695273 24.2739839,11.4962897 24.283066,11.4247959 C24.3285488,11.0672541 24.6169945,10.861782 24.97628,10.922232 C25.177538,10.9561625 25.3803218,10.9813016 25.5823791,11.0104368 C25.8394372,10.9522391 25.8039809,10.7924678 25.7508691,10.5940434 C24.5478983,6.10359178 20.6444371,2.76583277 16.0402057,2.4032777 C12.215504,2.10211723 9.01666386,3.43586942 6.50580652,6.35105923 C5.45766634,7.56798005 4.74192887,8.97453388 4.28811745,10.5131769 C4.23064629,10.7080412 4.10211725,10.9344383 4.38010036,11.0841103 C4.47375436,11.0667455 4.56820759,11.0529408 4.66091706,11.0315072 C5.46602182,10.8453616 5.71436115,11.039572 5.71450646,11.8584088 C5.71479708,13.2503587 5.71457912,14.6423086 5.71457912,16.0342585 C5.71457912,17.9103902 5.71588693,19.7864492 5.71348927,21.6625809 C5.71283536,22.1430572 5.57217271,22.3104574 5.13659803,22.3778825" id="Fill-1" fill="#00FAC2" mask="url(#mask-2)"></path>
                        </g>
                        <path d="M15.0200891,13.2656311 C13.4714921,13.2656311 11.921442,13.2221826 10.3745888,13.2750764 C7.51955845,13.3726539 5.55747434,16.2815952 6.48006438,18.9901504 C7.09401034,20.7926086 8.69971517,21.9673161 10.6411649,21.9790864 C13.544875,21.9966692 16.4487304,21.9846083 19.3525858,21.9813388 C19.5451978,21.9811208 19.7384636,21.9543106 19.9302763,21.9304793 C22.204056,21.6485728 23.8009694,19.7063965 23.7111662,17.3344581 C23.6295005,15.1766378 21.7958001,13.3387233 19.5930783,13.2737686 C18.0699837,13.228867 16.5444914,13.2651225 15.0200891,13.2656311 M19.7003917,25.7737084 C19.0683543,25.7313498 18.4669052,25.8356842 17.908614,26.1468713 C16.6613955,26.3014113 15.4103988,26.3891075 14.1532264,26.3304738 C11.9262373,26.2266479 9.76885302,25.8383725 7.79652437,24.7264401 C6.86259994,24.1999724 6.04209204,23.5327693 5.35447256,22.7071028 C5.27019122,22.6058199 5.17203253,22.5120932 5.13679421,22.3777517 C5.57215092,22.3103993 5.71281357,22.1430717 5.71346747,21.6625954 C5.71586513,19.7864638 5.71455732,17.9104048 5.71455732,16.0342731 C5.71462998,14.6423232 5.71477529,13.2503733 5.71448466,11.8584233 C5.71433935,11.0395865 5.46600002,10.8453762 4.66096792,11.031449 C4.56818579,11.0528826 4.47373257,11.06676 4.38007856,11.0841249 C4.4493927,10.9441888 4.51042401,10.7993121 4.58911081,10.6648979 C5.53567744,9.04807662 7.00769463,8.10339905 8.71460972,7.47419526 C10.3275075,6.87957588 12.0100827,6.63407015 13.7185236,6.56039664 C16.280531,6.44995902 18.8183439,6.58480916 21.2598871,7.46700229 C23.1137133,8.13682096 24.633611,9.22913618 25.5823573,11.0104514 C25.3803,10.9813162 25.1775162,10.9561044 24.9762582,10.9222466 C24.6169727,10.8617965 24.328527,11.0672686 24.2830442,11.4248104 C24.2739621,11.4963042 24.2763598,11.5695418 24.2763598,11.6419801 C24.2760692,14.952493 24.2756332,18.2630786 24.2767231,21.5736641 C24.276941,22.0808053 24.3942084,22.2236476 24.8951011,22.3507962 C24.3048411,23.1777705 23.5566262,23.8356009 22.7180996,24.4000679 C21.7878806,25.0262928 20.7524553,25.4174018 19.7003917,25.7737084" id="Fill-4" fill="#6666CC"></path>
                        <path d="M25.5823645,11.0104368 C24.6336182,9.22912165 23.1137205,8.13680643 21.2598943,7.46698775 C18.8183511,6.58486729 16.2805383,6.44994449 13.7185309,6.56038211 C12.01009,6.63405562 10.3275148,6.87956135 8.71454433,7.47418073 C7.00770189,8.10338452 5.53568471,9.04806209 4.58911808,10.6648833 C4.51043128,10.7993702 4.44939996,10.9441743 4.38008583,11.0841103 C4.10210272,10.9344383 4.23063176,10.7080412 4.28810292,10.5131769 C4.74191434,8.97453388 5.45765181,7.56798005 6.50586464,6.35098657 C9.01664933,3.43586942 12.2154894,2.10211723 16.0402638,2.4032777 C20.6444226,2.76583277 24.5479564,6.10359178 25.7508546,10.5940434 C25.804039,10.7924678 25.8394226,10.9522391 25.5823645,11.0104368" id="Fill-6" fill="#FEFEFE"></path>
                        <path d="M19.7003626,25.7737084 C20.7524989,25.4174018 21.7879242,25.0262928 22.7181431,24.4000679 C23.5566698,23.8356009 24.304812,23.1777705 24.895072,22.3507962 C25.2749193,22.4073228 25.3510631,22.5217565 25.255738,22.8771913 C24.7411859,24.7951003 23.4871377,25.9588367 21.5953849,26.4775302 C21.3206714,26.5528022 21.0850469,26.5428483 20.8623552,26.3277129 C20.5407783,26.0170344 20.1209701,25.8890866 19.7003626,25.7737084" id="Fill-8"></path>
                        <path d="M15.0201326,13.2653841 C16.544535,13.2651661 18.0699546,13.2289106 19.5930492,13.2738122 C21.7957711,13.3387669 23.6294715,15.1766087 23.7112098,17.3345016 C23.801013,19.7063674 22.204027,21.6485437 19.9302472,21.9305229 C19.7384345,21.9542815 19.5451687,21.9810917 19.3525568,21.9813097 C16.448774,21.9845792 13.5448459,21.9966402 10.6411358,21.9790573 C8.69975876,21.967287 7.09405394,20.7925795 6.48010797,18.9901214 C5.55751793,16.2815662 7.51952939,13.3726974 10.3746324,13.2750473 C11.921413,13.2221535 13.471463,13.265602 15.0201326,13.2653841" id="Fill-10" fill="#FEFEFE"></path>
                        <path d="M10.8982643,15.7527989 C11.8916201,15.7525371 12.719402,16.5761295 12.7208878,17.5663431 C12.7223696,18.5562948 11.8973807,19.3855605 10.906207,19.3902938 C9.91817546,19.3949869 9.08952073,18.5689507 9.08452414,17.574373 C9.07965787,16.5851195 9.90813803,15.7530608 10.8982643,15.7527989" id="Fill-6" fill="#000000"></path>
                        <path d="M17.0466961,17.5615702 C17.0507391,16.5635063 17.8747696,15.7476384 18.8733263,15.7529353 C19.8742474,15.7581967 20.6875944,16.5785148 20.6830598,17.5782366 C20.6785747,18.576824 19.8557702,19.3926047 18.8566005,19.3892989 C17.8611963,19.385973 17.0426827,18.5593723 17.0466961,17.5615702" id="Fill-8" fill="#000000"></path>
                    </g>
                </g>
            </g>
        </g>
    </g>
</svg>