<?xml version="1.0" encoding="UTF-8"?>
<svg width="39.468px" height="11.952px" viewBox="0 0 39.468 11.952" version="1.1" xmlns="http://www.w3.org/2000/svg" xmlns:xlink="http://www.w3.org/1999/xlink">
    <title>GAIN-Logo Copy</title>
    <g id="Final-Design" stroke="none" stroke-width="1" fill="none" fill-rule="evenodd">
        <g id="1-Gain---New-Design-Copy" transform="translate(-84.768, -181.304)" fill-rule="nonzero">
            <g id="Ascendion_Primary_Logo_White_RGB" transform="translate(0, 136)">
                <g id="Group-2" transform="translate(84.768, 45.304)">
                    <path d="M8.752,10.4 L9.008,11.696 L10.608,11.696 L10.608,5.52 L5.808,5.52 L5.808,7.392 L8.336,7.392 C8.26133333,8.192 7.99733333,8.80266667 7.544,9.224 C7.09066667,9.64533333 6.448,9.856 5.616,9.856 C5.05066667,9.856 4.57066667,9.74666667 4.176,9.528 C3.78133333,9.30933333 3.46133333,9.01866667 3.216,8.656 C2.97066667,8.29333333 2.792,7.88533333 2.68,7.432 C2.568,6.97866667 2.512,6.512 2.512,6.032 C2.512,5.53066667 2.568,5.04533333 2.68,4.576 C2.792,4.10666667 2.97066667,3.688 3.216,3.32 C3.46133333,2.952 3.78133333,2.65866667 4.176,2.44 C4.57066667,2.22133333 5.05066667,2.112 5.616,2.112 C6.224,2.112 6.74133333,2.272 7.168,2.592 C7.59466667,2.912 7.88266667,3.392 8.032,4.032 L10.432,4.032 C10.368,3.38133333 10.192,2.80533333 9.904,2.304 C9.616,1.80266667 9.25066667,1.38133333 8.808,1.04 C8.36533333,0.698666667 7.86933333,0.44 7.32,0.264 C6.77066667,0.088 6.20266667,0 5.616,0 C4.74133333,0 3.95466667,0.154666667 3.256,0.464 C2.55733333,0.773333333 1.968,1.2 1.488,1.744 C1.008,2.288 0.64,2.92533333 0.384,3.656 C0.128,4.38666667 0,5.17866667 0,6.032 C0,6.864 0.128,7.64 0.384,8.36 C0.64,9.08 1.008,9.70666667 1.488,10.24 C1.968,10.7733333 2.55733333,11.192 3.256,11.496 C3.95466667,11.8 4.74133333,11.952 5.616,11.952 C6.17066667,11.952 6.72,11.8373333 7.264,11.608 C7.808,11.3786667 8.304,10.976 8.752,10.4 Z" id="Path" fill="#01F9C1"></path>
                    <path d="M16.02,7.28 L17.508,3.088 L17.54,3.088 L18.98,7.28 L16.02,7.28 Z M16.26,0.272 L11.94,11.696 L14.468,11.696 L15.364,9.152 L19.636,9.152 L20.5,11.696 L23.108,11.696 L18.836,0.272 L16.26,0.272 Z" id="Shape" fill="#FC0577"></path>
                    <polygon id="Path" fill="#FEBF02" points="24.6 0.272 24.6 11.696 27.112 11.696 27.112 0.272"></polygon>
                    <polygon id="Path" fill="#A498FF" points="29.82 0.272 29.82 11.696 32.172 11.696 32.172 4.048 32.204 4.048 36.956 11.696 39.468 11.696 39.468 0.272 37.116 0.272 37.116 7.936 37.084 7.936 32.316 0.272"></polygon>
                </g>
            </g>
        </g>
    </g>
</svg>