<svg width="89" height="27" viewBox="0 0 89 27" fill="none" xmlns="http://www.w3.org/2000/svg">
<path d="M19.7359 23.4522L20.3132 26.3747H23.9213V12.4477H13.0972V16.6691H18.7978C18.6295 18.4731 18.0341 19.8502 17.0119 20.8003C15.9896 21.7504 14.5404 22.2255 12.6642 22.2255C11.3894 22.2255 10.3069 21.9789 9.41696 21.4858C8.52698 20.9927 7.80538 20.3373 7.25214 19.5195C6.69891 18.7016 6.29602 17.7816 6.04345 16.7593C5.79089 15.737 5.66461 14.6847 5.66461 13.6023C5.66461 12.4718 5.79089 11.3773 6.04345 10.319C6.29602 9.26062 6.69891 8.31651 7.25214 7.48667C7.80538 6.65682 8.52698 5.99535 9.41696 5.50225C10.3069 5.00915 11.3894 4.7626 12.6642 4.7626C14.0352 4.7626 15.2018 5.12341 16.164 5.84501C17.1261 6.56662 17.7756 7.64903 18.1123 9.09224H23.5244C23.38 7.62497 22.9832 6.32608 22.3337 5.19557C21.6843 4.06505 20.8604 3.11493 19.8622 2.34522C18.864 1.57551 17.7455 0.992209 16.5067 0.595325C15.268 0.198442 13.9871 0 12.6642 0C10.6918 0 8.91785 0.348776 7.34235 1.04633C5.76684 1.74388 4.43788 2.70602 3.35547 3.93275C2.27306 5.15949 1.44321 6.59669 0.865928 8.24435C0.288643 9.89202 0 11.678 0 13.6023C0 15.4785 0.288643 17.2284 0.865928 18.852C1.44321 20.4756 2.27306 21.8887 3.35547 23.0914C4.43788 24.2941 5.76684 25.2382 7.34235 25.9237C8.91785 26.6092 10.6918 26.952 12.6642 26.952C13.915 26.952 15.1537 26.6934 16.3805 26.1763C17.6072 25.6591 18.7257 24.7511 19.7359 23.4522Z" fill="#018567"/>
<path fill-rule="evenodd" clip-rule="evenodd" d="M26.9248 26.3746L36.6665 0.613281H42.4754L52.1089 26.3746H46.2278L44.2794 20.6379H34.646L32.6255 26.3746H26.9248ZM39.4808 6.96342L36.1253 16.4165H42.8001L39.5529 6.96342H39.4808Z" fill="#E2066B"/>
<path d="M55.4736 0.613281V26.3746H61.1382V0.613281H55.4736Z" fill="#BF9800"/>
<path d="M67.2451 0.613281V26.3746H72.5489V9.12824H72.6211L83.3369 26.3746H89.0016V0.613281H83.6977V17.8958H83.6256L72.8736 0.613281H67.2451Z" fill="#7261E3"/>
</svg>
